@startuml ProjectStructure

class MainUI{
    MAIN_DIR

    mainMenu()
}

class RestoreUI{

}

class KeybindsUI{

}

class ExecUI{

}

class CommonUI{
    SCRIPT_DIR

    activateOrDesactivate()
    programOptions()
    programEditorUi()
}

class ProgramsUI{
    programsUi()
}

class CommonConfig{
    switchActiveStatus()
}

class RWManager{
    SCRIPT_DIR

    editItem()
}

class ErrorUI{

}

class ValidatorConfig{

}

class Reader{
    get_values()
    get_line()
}

class Writer{
    write_change()
    erease_line()
}

class BackupManager{

}

class Restore{

}

class CreateBackup{

}

class AutoBackupCleaner{

}

' Relaciones
MainUI --> CommonUI
MainUI --> RWManager

CommonUI --> CommonConfig
CommonUI --> RestoreUI
CommonUI --> KeybindsUI
CommonUI --> ExecUI
CommonUI --> ProgramsUI

RWManager --> ErrorUI
RWManager --> ValidatorConfig
RWManager --> Reader
RWManager --> Writer

Writer --> BackupManager

BackupManager --> Restore
BackupManager --> CreateBackup
BackupManager --> AutoBackupCleaner

@enduml

' This is a temporal diagram, probably it will need to be modified